<svg width="1200" height="900" viewBox="0 0 1200 900" xmlns="http://www.w3.org/2000/svg" role="img" aria-label="it-solutions placeholder graphic">
  <defs>
    <linearGradient id="g-it-solutions" x1="0" y1="0" x2="1" y2="1">
      <stop offset="0%" stop-color="#0B1220"/>
      <stop offset="100%" stop-color="#111C34"/>
    </linearGradient>
  </defs>
  <rect width="1200" height="900" fill="url(#g-it-solutions)"/>
  <line x1="0" y1="8.6" x2="1200" y2="-51.4" stroke="#2A3A5C" stroke-width="1" opacity="0.35"/><line x1="0" y1="171.9" x2="1200" y2="111.9" stroke="#2A3A5C" stroke-width="1" opacity="0.35"/><line x1="0" y1="354.0" x2="1200" y2="294.0" stroke="#2A3A5C" stroke-width="1" opacity="0.35"/><line x1="0" y1="535.2" x2="1200" y2="475.2" stroke="#2A3A5C" stroke-width="1" opacity="0.35"/><line x1="0" y1="718.4" x2="1200" y2="658.4" stroke="#2A3A5C" stroke-width="1" opacity="0.35"/>
  <circle cx="42.9" cy="56.3" r="1.6" fill="#2A3A5C" opacity="0.6"/><circle cx="814.3" cy="56.3" r="1.6" fill="#2A3A5C" opacity="0.6"/><circle cx="1071.4" cy="56.3" r="1.6" fill="#2A3A5C" opacity="0.6"/><circle cx="1157.1" cy="281.3" r="1.6" fill="#2A3A5C" opacity="0.6"/><circle cx="728.6" cy="393.8" r="1.6" fill="#2A3A5C" opacity="0.6"/><circle cx="42.9" cy="506.3" r="1.6" fill="#2A3A5C" opacity="0.6"/><circle cx="814.3" cy="506.3" r="1.6" fill="#2A3A5C" opacity="0.6"/><circle cx="985.7" cy="506.3" r="1.6" fill="#2A3A5C" opacity="0.6"/><circle cx="1157.1" cy="506.3" r="1.6" fill="#2A3A5C" opacity="0.6"/><circle cx="42.9" cy="731.3" r="1.6" fill="#2A3A5C" opacity="0.6"/><circle cx="385.7" cy="843.8" r="1.6" fill="#2A3A5C" opacity="0.6"/><circle cx="642.9" cy="843.8" r="1.6" fill="#2A3A5C" opacity="0.6"/><circle cx="728.6" cy="843.8" r="1.6" fill="#2A3A5C" opacity="0.6"/><circle cx="1157.1" cy="843.8" r="1.6" fill="#2A3A5C" opacity="0.6"/>
  <rect x="0" y="0" width="1200" height="900" fill="none" stroke="#2A3A5C" stroke-width="1" opacity="0.5"/>
  <g transform="translate(0 0)">
    
    <rect x="484.8" y="306" width="230.4" height="79.2" rx="4" fill="none" stroke="#3B82F6" stroke-width="2.5"/>
    <rect x="484.8" y="399.6" width="230.4" height="79.2" rx="4" fill="none" stroke="#3B82F6" stroke-width="2.5"/>
    <rect x="484.8" y="493.2" width="230.4" height="79.2" rx="4" fill="none" stroke="#3B82F6" stroke-width="2.5"/>
    <circle cx="520.8" cy="346.32" r="2.5" fill="#93C5FD"/>
    <circle cx="520.8" cy="438.48" r="2.5" fill="#93C5FD"/>
    <circle cx="520.8" cy="532.08" r="2.5" fill="#93C5FD"/>
  
  </g>
</svg>